<svg id="Capa_1" data-name="Capa 1" xmlns="http://www.w3.org/2000/svg" xmlns:xlink="http://www.w3.org/1999/xlink" viewBox="0 0 116 92"><defs><style>.cls-1{fill:url(#linear-gradient);}.cls-2{fill:url(#linear-gradient-2);}.cls-3{fill:#4d4d4d;}.cls-4{fill:#fff;}</style><linearGradient id="linear-gradient" x1="18.1" y1="21.93" x2="99.25" y2="21.93" gradientUnits="userSpaceOnUse"><stop offset="0" stop-color="#007ac0"/><stop offset="0.26" stop-color="#248aca"/><stop offset="0.58" stop-color="#4c9cd4"/><stop offset="0.84" stop-color="#64a7db"/><stop offset="1" stop-color="#6dabdd"/></linearGradient><linearGradient id="linear-gradient-2" x1="18.1" y1="48.34" x2="99.25" y2="48.34" xlink:href="#linear-gradient"/></defs><title>0</title><polygon class="cls-1" points="76.06 19.36 76.06 12.92 41.28 12.92 41.28 19.36 18.1 19.36 18.1 30.95 45.15 30.95 45.15 24.51 72.2 24.51 72.2 30.95 99.25 30.95 99.25 19.36 76.06 19.36"/><rect class="cls-2" x="18.1" y="42.54" width="81.15" height="11.59"/><path class="cls-3" d="M24.3,68.5v8.79H21.21V68.5H18.1V65.7h9.31v2.8Z"/><path class="cls-3" d="M34.29,77.48c-2.8,0-4.85-1.46-4.85-5.14V65.7h3.14v6.64c0,1.43.55,2.3,1.75,2.3s1.72-.87,1.72-2.3V65.7H39.2v6.64C39.2,76,37.09,77.48,34.29,77.48Z"/><path class="cls-3" d="M46.12,77.48c-3.31,0-5.08-2.55-5.08-6,0-3.73,2.1-6,5.09-6,2.74,0,3.82,1.22,4.58,3.41l-2.79,1.14c-.4-1.07-.79-1.75-1.8-1.75-1.29,0-1.85,1.34-1.85,3.18s.54,3.18,1.88,3.18c1,0,1.38-.55,2-1.64l2.6,1.44A4.77,4.77,0,0,1,46.12,77.48Z"/><path class="cls-3" d="M57.35,77.48c-2.8,0-4.85-1.46-4.85-5.14V65.7h3.15v6.64c0,1.43.54,2.3,1.75,2.3s1.72-.87,1.72-2.3V65.7h3.14v6.64C62.26,76,60.15,77.48,57.35,77.48Z"/><path class="cls-3" d="M96.73,77.29l-2.65-3.82c-.49-.71-1.45-2.2-1.73-2.72.07.52.09,2.06.09,3v3.54h-3V65.7H92.2l2.45,3.43c.51.71,1.49,2.25,1.73,2.73-.08-.51-.09-2-.09-3V65.7h3V77.29Z"/><path class="cls-3" d="M84.78,77.29l-.6-1.92H80.83l-.6,1.92H76.92L81,65.7h3.12l4,11.59Zm-2.27-8.62c-.15.78-1.14,4.57-1.14,4.57h2.27S82.65,69.45,82.51,68.67Z"/><polygon class="cls-3" points="83.3 64.42 81.42 64.42 82.33 61.83 85.37 61.83 83.3 64.42"/><path class="cls-3" d="M72.82,65.7l-1.37,3.1a33.57,33.57,0,0,0-1.4,3.49,32.2,32.2,0,0,0-1.39-3.49l-1.38-3.1H64.46V77.29h2.89V74.53c0-1.15,0-2.19-.07-3.08.34.86.91,2.2,1.29,3L69.25,76h1.58l.67-1.47c.38-.83,1-2.17,1.29-3-.05.89-.07,1.93-.07,3.08v2.76h2.9V65.7Z"/><polygon class="cls-4" points="72.2 30.95 72.2 24.51 45.15 24.51 45.15 30.95 18.1 30.95 18.1 42.54 99.25 42.54 99.25 30.95 72.2 30.95"/></svg>